<svg width="83" height="83" viewBox="0 0 83 83" fill="none" xmlns="http://www.w3.org/2000/svg">
<path fill-rule="evenodd" clip-rule="evenodd" d="M17.9957 33.7643L51.261 0.495178L60.9781 10.2133C59.223 12.9354 59.8741 16.9833 62.6994 19.809C65.5247 22.6344 69.572 23.2857 72.2938 21.5303L82.0108 31.2484L76.9304 36.3294H79.4442V51.8734C76.5205 52.5865 74.3201 55.6918 74.3201 59.4144C74.3201 63.1372 76.5205 66.2425 79.4442 66.9556V82.4994H30.7657L30.7612 82.5039L30.7567 82.4994H2.57809V66.9557C5.50189 66.2428 7.7026 63.1373 7.7026 59.4144C7.7026 55.6916 5.50189 52.5863 2.57809 51.8733V36.3294H74.3201V33.7643H68.4295C68.7362 32.2098 68.2874 30.5357 67.083 29.3311L53.1782 15.4246C51.2581 13.5046 48.1454 13.5046 46.2256 15.4246L27.8879 33.7643H17.9957ZM0.016098 51.746L0.0115051 51.7506L0.016098 51.7552V51.746ZM43.527 33.7643H31.3211L37.424 27.6607L43.527 33.7643ZM65.0089 33.7643H46.9433L39.1323 25.9522L46.2385 18.8453C48.1631 16.9205 51.2835 16.9205 53.2084 18.8453L63.6629 29.3009C64.8752 30.5134 65.3238 32.2005 65.0089 33.7643ZM48.6978 44.0244H17.9514C15.1212 44.0244 12.827 46.3213 12.827 49.1544V69.6745C12.827 72.5078 15.1212 74.8044 17.9514 74.8044H48.6978H51.2601H64.0712C66.9012 74.8044 69.1955 72.5078 69.1955 69.6745V49.1544C69.1955 46.3213 66.9012 44.0244 64.0712 44.0244H51.2601H48.6978ZM48.6978 46.5895H20.5137C17.6832 46.5895 15.3892 48.8863 15.3892 51.7194V67.1096C15.3892 69.9427 17.6832 72.2394 20.5137 72.2394H48.6978V46.5895ZM51.2601 72.2394H61.5091C64.339 72.2394 66.6332 69.9427 66.6332 67.1096V51.7194C66.6332 48.8863 64.339 46.5895 61.5091 46.5895H51.2601V72.2394Z" fill="white"/>
</svg>
