<svg width="33" height="34" viewBox="0 0 33 34" fill="none" xmlns="http://www.w3.org/2000/svg">
<path fill-rule="evenodd" clip-rule="evenodd" d="M16.4996 0.499756C25.6125 0.499756 32.9997 7.88706 32.9997 16.9998C32.9997 26.1126 25.6125 33.4998 16.4996 33.4998C7.38706 33.4998 -0.000244141 26.1126 -0.000244141 16.9998C-0.000244141 7.88706 7.38706 0.499756 16.4996 0.499756ZM16.4996 3.79968C19.6118 3.79968 22.4724 4.8767 24.729 6.67834C23.7943 7.72783 21.7121 9.83723 18.4861 11.8791C17.109 9.31521 15.4225 6.68194 13.3658 4.17392C14.3703 3.92934 15.4198 3.79968 16.4996 3.79968ZM23.7866 11.5133C24.8106 10.728 25.8616 9.86559 26.9379 8.9189C27.7552 9.9732 28.4164 11.1547 28.8867 12.4286C27.0647 11.8643 25.3666 11.5766 23.7866 11.5133ZM16.0082 13.2307C15.7338 13.3741 15.4656 13.5245 15.2033 13.6814C11.2789 15.4589 6.6897 16.1712 3.33167 16.0736C3.66968 11.1967 6.65682 7.04911 10.864 5.05978C12.0017 6.60403 13.9941 9.4839 16.0082 13.2307ZM9.77752 18.618C7.88652 21.0564 6.68207 23.5494 6.04857 25.0639C4.73735 23.3671 3.83017 21.3421 3.47121 19.1332C4.95013 19.2689 7.08559 19.2423 9.77752 18.618ZM8.0525 27.1434C10.6693 21.0159 14.0873 17.7536 17.4755 16.1242C19.2904 19.931 20.9516 24.3732 21.8124 29.0871C20.1869 29.8026 18.3896 30.1998 16.4996 30.1998C13.2865 30.1998 10.3415 29.0517 8.0525 27.1434ZM20.1084 15.1601C24.1502 14.111 27.8253 15.0099 29.6289 15.6252C29.6756 16.077 29.6996 16.5355 29.6996 16.9997C29.6996 21.4347 27.5124 25.3589 24.1578 27.7524C23.9496 26.5768 22.9206 21.3531 20.1084 15.1601Z" fill="#252825"/>
</svg>
