<svg width="30" height="29" viewBox="0 0 30 29" fill="none" xmlns="http://www.w3.org/2000/svg">
<path fill-rule="evenodd" clip-rule="evenodd" d="M29.9998 3.73727L27.1961 6.97479C27.1961 6.97479 27.1961 6.68134 27.1961 7.51439C27.1961 8.10609 27.1136 8.67133 26.9942 9.22018C26.9289 13.674 25.7002 19.58 20.6541 24.2416C10.7281 33.4111 0.0936279 25.3208 0.0936279 25.3208C8.5048 25.3208 8.5048 22.0833 8.5048 22.0833C6.63556 22.0833 2.89739 17.7667 2.89739 17.7667C3.8319 18.8456 5.70104 17.7667 5.70104 17.7667C1.02815 14.529 1.02815 11.2915 1.02815 11.2915C1.96277 12.3707 3.8319 11.2915 3.8319 11.2915C-0.840889 6.97479 1.96277 1.57885 1.96277 1.57885C2.89739 6.97479 15.0467 9.13309 15.0467 9.13309L15.2013 9.04378C15.1059 8.55029 15.0467 7.50163 15.0467 6.97479C15.0467 3.10075 17.7664 0.499756 21.1214 0.499756C22.968 0.499756 24.602 1.47151 25.7159 2.97316L26.2616 2.65818L29.0653 0.499756L27.1961 4.81648L29.9998 3.73727Z" fill="#252825"/>
</svg>
