<svg width="29" height="28" viewBox="0 0 29 28" fill="none" xmlns="http://www.w3.org/2000/svg">
<path fill-rule="evenodd" clip-rule="evenodd" d="M24.1665 0.499756C26.8358 0.499756 28.9998 2.65836 28.9998 5.32116C28.9998 7.98406 26.8358 10.1427 24.1665 10.1427C22.7191 10.1427 21.4202 9.50796 20.5344 8.50232L9.46596 12.6173C9.59634 13.0535 9.66636 13.5156 9.66636 13.994C9.66636 14.2821 9.64097 14.5643 9.5923 14.8385L20.1593 19.9816C21.028 18.6997 22.4986 17.8569 24.1665 17.8569C26.8358 17.8569 28.9998 20.0155 28.9998 22.6782C28.9998 25.3411 26.8358 27.4998 24.1665 27.4998C21.5376 27.4998 19.3989 25.4062 19.3346 22.7991L8.24727 17.4026C7.37289 18.2721 6.16599 18.8096 4.83306 18.8096C2.16376 18.8096 -0.000244141 16.6536 -0.000244141 13.994C-0.000244141 11.3343 2.16376 9.17834 4.83306 9.17834C5.93443 9.17834 6.94975 9.54537 7.76254 10.1634L19.362 5.85098C19.3429 5.67699 19.3331 5.50021 19.3331 5.32116C19.3331 2.65836 21.4971 0.499756 24.1665 0.499756Z" fill="#272C2C"/>
</svg>
