<svg width="68" height="86" viewBox="0 0 68 86" fill="none" xmlns="http://www.w3.org/2000/svg">
<path opacity="0.258824" fill-rule="evenodd" clip-rule="evenodd" d="M33.9063 10.3736C33.1903 4.80349 28.4306 0.49939 22.666 0.49939C16.8657 0.49939 12.0831 4.85675 11.413 10.4768C10.2157 9.55057 8.71356 8.99939 7.08271 8.99939C3.17051 8.99939 -0.000488281 12.1707 -0.000488281 16.0828C-0.000488281 19.9947 3.17051 23.1661 7.08271 23.1661C7.62902 23.1661 8.16088 23.1042 8.67167 22.9872C9.60842 26.3089 14.249 28.8328 19.8324 28.8328C24.5391 28.8328 28.5755 27.0396 30.2884 24.4868C32.3277 27.1099 35.7668 28.8328 39.6657 28.8328C45.9253 28.8328 50.9991 24.3928 50.9991 18.9162C50.9991 13.4393 45.9253 8.99939 39.6657 8.99939C37.5631 8.99939 35.5941 9.50047 33.9063 10.3736ZM1.41571 25.9995H-0.000488281V76.9994H0.141194C0.0482842 77.4571 -0.000488281 77.9309 -0.000488281 78.416C-0.000488281 82.3282 3.17051 85.4995 7.08271 85.4995H43.9159C47.828 85.4995 50.9991 82.3282 50.9991 78.416C50.9991 77.9309 50.9503 77.4571 50.8574 76.9994H50.9991V74.1661H56.666V74.0657C57.1286 74.1319 57.6016 74.1661 58.0826 74.1661C63.5595 74.1661 67.9993 69.7263 67.9993 64.2494V44.4162C67.9993 38.9393 63.5595 34.4993 58.0826 34.4993C57.6016 34.4993 57.1286 34.5336 56.666 34.5997V34.4993H50.9991V25.9995H50.8843C50.0987 30.8052 45.3756 34.4993 39.6657 34.4993C35.7669 34.4993 32.3277 32.7765 30.2885 30.1535C28.5755 32.7064 24.5391 34.4993 19.8324 34.4993C14.249 34.4993 9.60844 31.9759 8.67168 28.6538C8.16088 28.7709 7.62902 28.8328 7.08271 28.8328C4.76529 28.8328 2.70794 27.7199 1.41571 25.9995ZM62.3324 48.6661C62.3324 45.5364 59.7955 42.9994 56.666 42.9994H50.9991V48.6661V59.9995V65.6661L56.666 65.6661C59.7955 65.6661 62.3324 63.129 62.3324 59.9995V48.6661ZM8.49921 40.1662H14.1659V71.3327H8.49921V40.1662ZM28.3325 40.1662H22.666V71.3327H28.3325V40.1662ZM36.8325 40.1662H42.4991V71.3327H36.8325V40.1662Z" fill="white"/>
</svg>
