<svg width="80" height="71" viewBox="0 0 80 71" fill="none" xmlns="http://www.w3.org/2000/svg">
<path fill-rule="evenodd" clip-rule="evenodd" d="M52.4993 0.499573H27.4993C26.1187 0.499573 24.9993 1.99177 24.9993 3.83267V9.66607C24.9993 9.95389 25.0267 10.2332 25.0781 10.4996H7.4993C3.357 10.4996 -0.000701904 13.8572 -0.000701904 17.9994V62.9995C-0.000701904 67.1417 3.357 70.4993 7.4993 70.4993H72.4993C76.6413 70.4993 79.9994 67.1417 79.9994 62.9995V17.9994C79.9994 13.8572 76.6413 10.4996 72.4993 10.4996H54.9205C54.9719 10.2332 54.9993 9.95389 54.9993 9.66607V3.83267C54.9993 1.99177 53.8799 0.499573 52.4993 0.499573ZM39.9993 17.9994C52.4256 17.9994 62.4993 28.073 62.4993 40.4995C62.4993 52.9258 52.4256 62.9995 39.9993 62.9995C27.5728 62.9995 17.4993 52.9258 17.4993 40.4995C17.4993 28.073 27.5728 17.9994 39.9993 17.9994ZM54.9993 40.4995C54.9993 32.2152 48.2836 25.4994 39.9993 25.4994C31.715 25.4994 24.9993 32.2152 24.9993 40.4995C24.9993 48.7838 31.715 55.4995 39.9993 55.4995C48.2836 55.4995 54.9993 48.7838 54.9993 40.4995ZM39.9993 35.4995C42.7607 35.4995 44.9993 37.7381 44.9993 40.4995C44.9993 43.2609 42.7607 45.4994 39.9993 45.4994C37.2378 45.4994 34.9993 43.2609 34.9993 40.4995C34.9993 37.7381 37.2378 35.4995 39.9993 35.4995ZM49.9993 5.49939H29.9993V7.99959H49.9993V5.49939Z" fill="white"/>
</svg>
