<svg width="76" height="77" viewBox="0 0 76 77" fill="none" xmlns="http://www.w3.org/2000/svg">
<path fill-rule="evenodd" clip-rule="evenodd" d="M4.74961 0.49939H47.4996C50.1231 0.49939 52.2496 2.62619 52.2496 5.24939V62.2495C52.2496 64.8729 50.1231 66.9995 47.4996 66.9995H4.74961C2.12621 66.9995 -0.000488281 64.8729 -0.000488281 62.2495V5.24939C-0.000488281 2.62619 2.12621 0.49939 4.74961 0.49939ZM9.49951 69.3746V71.7495C9.49951 74.3727 11.6263 76.4994 14.2496 76.4994H71.2496C73.873 76.4994 75.9996 74.3727 75.9996 71.7495V28.9996C75.9996 26.3762 73.873 24.2497 71.2496 24.2497H54.6247V31.3746H66.4997V69.3746L54.6247 69.3746H9.49951ZM45.1246 7.62451H7.12469V57.4995H45.1246V7.62451ZM26.1246 59.8745C27.4364 59.8745 28.4994 60.9379 28.4994 62.2495C28.4994 63.5612 27.4364 64.6244 26.1246 64.6244C24.8129 64.6244 23.7496 63.5612 23.7496 62.2495C23.7496 60.9379 24.8129 59.8745 26.1246 59.8745ZM73.6245 50.3745C73.6245 49.0628 72.5614 47.9996 71.2496 47.9996C69.9379 47.9996 68.8745 49.0628 68.8745 50.3745C68.8745 51.6863 69.9379 52.7494 71.2496 52.7494C72.5614 52.7494 73.6245 51.6863 73.6245 50.3745Z" fill="white"/>
</svg>
