<svg width="13" height="15" viewBox="0 0 13 15" fill="none" xmlns="http://www.w3.org/2000/svg">
<path fill-rule="evenodd" clip-rule="evenodd" d="M5.95828 0.5273C5.95828 0.5273 5.47088 0.5 6.96048 0.5C9.23538 0.5 9.50628 3.1523 9.50628 3.1523C9.50628 3.1523 9.53338 5.9414 9.53338 6.5977C9.53338 7.2539 8.44808 7.6933 8.63958 7.5C8.66668 7.4726 8.63958 9.25 8.63958 9.25L13.0001 12.7499V14.4999H0.0319828L0.00488281 12.7773L4.33328 9.2226V7.5C4.33328 7.5 3.46668 7.4179 3.46668 6.5977C3.46668 5.7774 3.46668 3.1523 3.46668 3.1523C3.46668 3.1523 3.79168 0.5273 5.95828 0.5273Z" fill="white"/>
</svg>
